{
  "accessors": [
    {
      "bufferView": 0,
      "componentType": 5125,
      "count": 420,
      "type": "SCALAR"
    },
    {
      "bufferView": 1,
      "componentType": 5126,
      "count": 191,
      "max": [
        0.448138922452927,
        -0.943959712982178,
        0.44255456328392
      ],
      "min": [
        -0.448138922452927,
        -1.05638766288757,
        -0.381685793399811
      ],
      "type": "VEC3"
    },
    {
      "bufferView": 2,
      "componentType": 5126,
      "count": 191,
      "type": "VEC3"
    },
    {
      "bufferView": 3,
      "componentType": 5126,
      "count": 191,
      "type": "VEC2"
    }
  ],
  "asset": {
    "generator": "Substance Painter 2019.3.3",
    "version": "2.0"
  },
  "bufferViews": [
    {
      "buffer": 0,
      "byteLength": 1680,
      "target": 34963
    },
    {
      "buffer": 0,
      "byteLength": 2292,
      "byteOffset": 1680,
      "target": 34962
    },
    {
      "buffer": 0,
      "byteLength": 2292,
      "byteOffset": 3972,
      "target": 34962
    },
    {
      "buffer": 0,
      "byteLength": 1528,
      "byteOffset": 6264,
      "target": 34962
    }
  ],
  "buffers": [
    {
      "byteLength": 7792,
      "uri": "chairSeat.bin"
    }
  ],
  "images": [
    {
      "uri": "chairMat_baseColor.png"
    },
    {
      "uri": "chairMat_occlusionRoughnessMetallic.png"
    },
    {
      "uri": "chairMat_normal.png"
    },
    {
      "uri": "chairMat_emissive.png"
    }
  ],
  "materials": [
    {
      "alphaMode": "BLEND",
      "emissiveFactor": [
        1.0,
        1.0,
        1.0
      ],
      "emissiveTexture": {
        "index": 3
      },
      "name": "chairMat",
      "normalTexture": {
        "index": 2
      },
      "occlusionTexture": {
        "index": 1
      },
      "pbrMetallicRoughness": {
        "baseColorTexture": {
          "index": 0
        },
        "metallicRoughnessTexture": {
          "index": 1
        }
      }
    }
  ],
  "meshes": [
    {
      "name": "seat",
      "primitives": [
        {
          "attributes": {
            "NORMAL": 2,
            "POSITION": 1,
            "TEXCOORD_0": 3
          },
          "indices": 0,
          "material": 0,
          "mode": 4
        }
      ]
    }
  ],
  "nodes": [
    {
      "children": [
        1
      ],
      "name": "root",
      "scale": [
        0.454962521791458,
        0.454962521791458,
        0.454962521791458
      ],
      "translation": [
        0.0,
        0.455041527748108,
        -0.0138465017080307
      ]
    },
    {
      "children": [
        2
      ],
      "name": "seat"
    },
    {
      "mesh": 0,
      "name": "seat"
    }
  ],
  "samplers": [
    {
      "magFilter": 9729,
      "minFilter": 9985,
      "wrapS": 10497,
      "wrapT": 10497
    }
  ],
  "scene": 0,
  "scenes": [
    {
      "name": "Scene",
      "nodes": [
        0
      ]
    }
  ],
  "textures": [
    {
      "sampler": 0,
      "source": 0
    },
    {
      "sampler": 0,
      "source": 1
    },
    {
      "sampler": 0,
      "source": 2
    },
    {
      "sampler": 0,
      "source": 3
    }
  ]
}